HIERARCHY
ROOT root
{
	OFFSET	0	13.1	24.9
	CHANNELS 6  Xposition Yposition Zposition Xrotation Yrotation Zrotation
	JOINT spine_1
	{
		OFFSET	0	9.99999	0
		CHANNELS 3  Xrotation Yrotation Zrotation
		JOINT spine_2
		{
			OFFSET	0	112	-10
			CHANNELS 3  Xrotation Yrotation Zrotation
			JOINT spine_3
			{
				OFFSET	0	206.5	19.3
				CHANNELS 3  Xrotation Yrotation Zrotation
				JOINT spine_4
				{
					OFFSET	0	110.4	14.6
					CHANNELS 3  Xrotation Yrotation Zrotation
					JOINT neck_1
					{
						OFFSET	0	71.8	-50.3
						CHANNELS 3  Xrotation Yrotation Zrotation
						JOINT neck_2
						{
							OFFSET	0	86.2	-25.8
							CHANNELS 3  Xrotation Yrotation Zrotation
							JOINT head_ee
							{
								OFFSET	0	179.8	-8.7
								CHANNELS 3  Xrotation Yrotation Zrotation
								End Site
								{
									OFFSET	1	0	0
								}
							}
						}
					}
					JOINT left_clavicle
					{
						OFFSET	-43.2	22.4	-70.8
						CHANNELS 3  Xrotation Yrotation Zrotation
						JOINT left_shoulder
						{
							OFFSET	-93.9	-5.79999	48.7
							CHANNELS 3  Xrotation Yrotation Zrotation
							JOINT left_elbow
							{
								OFFSET	-291.4	-30.8	15.2
								CHANNELS 3  Xrotation Yrotation Zrotation
								JOINT left_lowarm_twist
								{
									OFFSET	-110.7	-3.89999	13.6
									CHANNELS 3  Xrotation Yrotation Zrotation
									JOINT left_hand
									{
										OFFSET	-110.7	-3.89999	13.6
										CHANNELS 3  Xrotation Yrotation Zrotation
										JOINT left_ee
										{
											OFFSET	-80.8	-5.10001	12.1
											CHANNELS 3  Xrotation Yrotation Zrotation
											End Site
											{
												OFFSET	1	0	0
											}
										}
									}
								}
							}
						}
					}
					JOINT right_clavicle
					{
						OFFSET	43.2	22.4	-70.8
						CHANNELS 3  Xrotation Yrotation Zrotation
						JOINT right_shoulder
						{
							OFFSET	93.9	-5.79999	48.7
							CHANNELS 3  Xrotation Yrotation Zrotation
							JOINT right_elbow
							{
								OFFSET	291.4	-30.8	15.2
								CHANNELS 3  Xrotation Yrotation Zrotation
								JOINT right_lowarm_twist
								{
									OFFSET	110.7	-3.89999	13.6
									CHANNELS 3  Xrotation Yrotation Zrotation
									JOINT right_hand
									{
										OFFSET	110.7	-3.89999	13.6
										CHANNELS 3  Xrotation Yrotation Zrotation
										JOINT right_ee
										{
											OFFSET	80.8	-5.10001	12.1
											CHANNELS 3  Xrotation Yrotation Zrotation
											End Site
											{
												OFFSET	1	0	0
											}
										}
									}
								}
							}
						}
					}
				}
			}
		}
	}
	JOINT left_hip
	{
		OFFSET	-82.8	-127.5	0.300001
		CHANNELS 3  Xrotation Yrotation Zrotation
		JOINT left_knee
		{
			OFFSET	-28.2	-396.7	2.2
			CHANNELS 3  Xrotation Yrotation Zrotation
			JOINT left_ankle
			{
				OFFSET	-11.7	-411.3	35.4
				CHANNELS 3  Xrotation Yrotation Zrotation
				JOINT left_toes
				{
					OFFSET	0	-60	-88.6
					CHANNELS 3  Xrotation Yrotation Zrotation
					JOINT left_foot_ee
					{
						OFFSET	-22.5	-16.5	-42.2
						CHANNELS 3  Xrotation Yrotation Zrotation
						End Site
						{
							OFFSET	1	0	0
						}
					}
				}
			}
		}
	}
	JOINT right_hip
	{
		OFFSET	82.8	-127.5	0.300001
		CHANNELS 3  Xrotation Yrotation Zrotation
		JOINT right_knee
		{
			OFFSET	28.2	-396.7	2.2
			CHANNELS 3  Xrotation Yrotation Zrotation
			JOINT right_ankle
			{
				OFFSET	11.7	-411.3	35.4
				CHANNELS 3  Xrotation Yrotation Zrotation
				JOINT right_toes
				{
					OFFSET	0	-60	-88.6
					CHANNELS 3  Xrotation Yrotation Zrotation
					JOINT right_foot_ee
					{
						OFFSET	22.5	-16.5	-42.2
						CHANNELS 3  Xrotation Yrotation Zrotation
						End Site
						{
							OFFSET	1	0	0
						}
					}
				}
			}
		}
	}
}
MOTION
Frames: 14
Frame Time: 0.02
2885.65484504 689.14 -1684.23353949 1.38943744181 43.6134033724 1.54186651628 2.70962 0.46873 -0.201228 2.70951 0.480585 -0.170993 2.70809 0.502099 -0.0899846 2.7084 0.481586 -0.168154 -18.7984 17.5891 0.567126 -20.4957 33.5402 8.20422 -0.0 0.0 -0.0 -2.01545 7.1958 -2.75481 -7.57546 -17.6149 67.7727 0.95688 -25.361 0.215305 36.1042 -0.162288 -4.53382 -0.28793 2.92585 -0.677602 -0.0 0.0 -0.0 8.34818 28.2617 -14.9466 -20.6684 24.2645 -67.4356 0.934375 24.8373 -0.205758 31.3644 -0.0221741 3.95691 1.96914 -21.473 -20.6476 0.0 0.0 0.0 6.26539 12.8607 -1.9207 -20.138 0.293974 3.06046 8.78367 15.9675 -1.26599 39.2178 -0.0 -0.0 -0.0 0.0 -0.0 22.792 28.2465 -14.6564 -50.9456 1.30551 -7.45591 -23.1985 2.2128 -3.55315 20.754 -0.0 -0.0 0.0 0.0 0.0 
2873.21351943 693.14 -1657.49426511 0.770745457848 48.6363103234 1.25444962902 2.56334 0.319004 -0.0792018 2.56328 0.323397 -0.058742 2.56296 0.328663 -0.00415984 2.5631 0.323881 -0.0560143 -18.4584 18.6219 1.00821 -20.3104 35.2788 9.02294 -0.0 0.0 -0.0 -1.85618 9.10342 -2.16443 -5.68691 -16.0494 65.8265 1.14398 -29.5391 0.301612 33.9902 -0.0741124 -4.27837 -0.794964 -0.541576 -5.55287 -0.0 0.0 -0.0 8.87991 27.4654 -16.2112 -22.1688 24.0828 -66.049 0.841615 22.6316 -0.168416 30.5695 -0.0484012 3.85878 1.96245 -22.854 -20.9829 0.0 0.0 0.0 5.20578 16.093 -0.413481 -17.8867 0.314806 2.71569 6.04705 14.5693 -0.876143 37.7064 -0.0 -0.0 -0.0 0.0 -0.0 22.4724 24.503 -15.8118 -42.2436 0.615638 -6.30947 -22.8003 1.41088 -3.4832 13.7491 -0.0 -0.0 0.0 0.0 0.0 
2861.56540751 697.765 -1619.4986968 -0.298710617611 54.6546771671 2.22279460007 2.50359 0.143518 -0.0801503 2.50358 0.148327 -0.0708554 2.50339 0.15809 -0.0450458 2.50342 0.148992 -0.0694478 -18.0562 19.5372 1.41619 -20.0272 36.7992 9.7197 -0.0 0.0 -0.0 -1.62402 9.55966 -1.68703 -4.2782 -15.5001 64.4321 1.49599 -36.5387 0.493889 33.5971 -0.0587618 -4.23053 -1.03381 -0.828842 -7.28716 -0.0 0.0 -0.0 9.27774 27.8726 -17.0469 -23.0126 24.0751 -65.151 0.67357 18.4522 -0.109411 29.2522 -0.0888624 3.69538 1.88587 -27.2636 -21.6354 0.0 0.0 0.0 5.92625 19.7841 -0.463423 -16.9457 0.319497 2.57139 0.915275 12.789 -0.134043 39.0096 -0.0 -0.0 -0.0 0.0 -0.0 21.0454 26.4973 -15.1419 -35.0807 0.18382 -5.29747 -22.5416 4.15561 -3.47725 9.5551 -0.0 -0.0 0.0 0.0 0.0 
2853.81405406 699.799 -1594.34143693 -1.40225369464 58.5861280825 2.88932712904 2.50565 0.148458 -0.15157 2.50565 0.157802 -0.141816 2.50526 0.179298 -0.113427 2.50528 0.159134 -0.140321 -16.5374 19.8838 0.705833 -18.3454 37.7479 8.63889 -0.0 0.0 -0.0 -1.83113 12.1462 -1.63258 -4.01374 -15.2952 63.2298 1.87806 -42.9288 0.738495 31.3631 0.0222162 -3.95675 -0.642176 -3.06447 -5.62149 -0.0 0.0 -0.0 9.51918 27.4492 -17.6316 -24.2019 23.4693 -63.7158 0.555969 15.3983 -0.0751622 28.2231 -0.117846 3.56713 1.96683 -29.7429 -22.6852 0.0 0.0 0.0 5.97587 22.7075 0.752407 -16.8829 0.319725 2.56177 -1.25673 10.5402 0.184568 40.2651 -0.0 -0.0 -0.0 0.0 -0.0 20.0652 26.6117 -13.806 -29.0575 -0.0790109 -4.41102 -22.7637 5.54631 -3.53205 6.09501 -0.0 -0.0 0.0 0.0 0.0 
2842.00565195 700.906 -1576.94295729 -0.988734830676 60.5293373837 1.76693943758 2.29008 -0.151979 0.02482 2.29007 -0.15325 0.0150989 2.29003 -0.153576 -0.0113205 2.29007 -0.153436 0.0130761 -17.3586 19.22 1.49514 -19.1151 36.1024 9.33728 -0.0 0.0 -0.0 -1.68904 13.1889 -1.22938 -2.21753 -13.7343 62.8632 2.09533 -46.0616 0.890823 29.5415 0.0802979 -3.73134 -1.01672 -4.6175 -8.83979 -0.0 0.0 -0.0 9.48312 27.4291 -17.5537 -26.0347 24.3809 -62.3565 0.543074 15.0576 -0.0717751 26.795 -0.154242 3.38833 2.83834 -29.9829 -27.9996 0.0 0.0 0.0 -1.06489 22.9757 6.13771 -10.2712 0.284742 1.54848 3.43597 11.3286 -0.499139 37.9528 -0.0 -0.0 -0.0 0.0 -0.0 28.1714 25.4148 -14.7313 -25.6333 -0.186402 -3.89656 -19.9526 7.63642 -3.12581 1.46823 -0.0 -0.0 0.0 0.0 0.0 
2832.25400506 697.787 -1556.95348354 -2.90324947976 61.3556077665 3.32148972738 2.27543 -0.195887 0.0645664 2.27541 -0.199599 0.0519707 2.27523 -0.205549 0.0170324 2.27529 -0.20028 0.0492814 -17.5645 19.4335 0.856798 -19.4596 36.8674 8.96676 -0.0 0.0 -0.0 -1.98564 13.33 -1.69653 -1.33626 -12.89 62.7273 2.41291 -50.0758 1.12723 30.653 0.0457118 -3.8691 -0.688196 -6.60555 -7.46688 -0.0 0.0 -0.0 9.55824 28.1255 -17.6406 -27.0751 25.5195 -61.2636 0.464361 12.9546 -0.0527214 24.5246 -0.202893 3.1024 2.85287 -30.4633 -28.1643 0.0 0.0 0.0 -1.09588 26.3493 6.53431 -10.7756 0.291528 1.62557 2.79489 8.47481 -0.406135 37.8835 -0.0 -0.0 -0.0 0.0 -0.0 29.1207 24.9355 -14.0109 -22.3627 -0.260094 -3.40014 -20.0271 6.96528 -3.12703 -2.4479 0.0 0.0 0.0 0.0 0.0 
2819.97956752 695.248 -1543.30185066 -1.88596321075 62.0204792887 1.84188041031 2.0986 -0.173431 0.154222 2.0986 -0.182893 0.142873 2.09814 -0.20499 0.108819 2.09817 -0.185231 0.139828 -15.5597 19.4831 1.80453 -17.0147 36.283 9.02327 -0.0 0.0 -0.0 -1.90468 12.6377 -1.67598 -0.0829293 -12.4253 62.2852 2.61232 -52.2958 1.28264 28.5827 0.10798 -3.612 -0.206216 -7.41786 -4.54468 -0.0 0.0 -0.0 9.54381 28.1069 -17.6107 -28.2136 26.0828 -60.6543 0.409695 11.4726 -0.0411555 22.8996 -0.230738 2.8967 3.59419 -30.6599 -32.9206 0.0 0.0 0.0 -6.09118 27.8727 10.0548 -7.55702 0.236583 1.13481 3.37904 7.75709 -0.490262 35.9254 -0.0 -0.0 -0.0 0.0 -0.0 34.3457 23.6569 -15.7078 -20.986 -0.282615 -3.1901 -14.4377 6.74012 -2.24446 -3.34276 0.0 0.0 0.0 0.0 0.0 
2805.67677124 692.75 -1542.18606239 -3.87353679073 60.2019812403 3.32653027449 2.36644 0.127797 0.00437494 2.36643 0.12726 0.0124981 2.36646 0.123295 0.0339038 2.36648 0.127102 0.0140061 -15.9954 19.491 1.49309 -17.5556 36.5148 8.92278 -0.0 0.0 -0.0 -1.95675 12.4433 -1.79483 0.265209 -12.3192 62.2606 2.86567 -54.8271 1.48651 29.147 0.0919297 -3.6823 -0.108058 -8.05166 -4.1511 -0.0 0.0 -0.0 9.44627 27.9238 -17.4152 -29.3292 26.4504 -60.3448 0.35678 10.0231 -0.0312867 21.7975 -0.246296 2.75679 3.45096 -30.4218 -31.9569 0.0 0.0 0.0 -8.73787 27.5269 12.7299 -4.41092 0.156313 0.658729 2.63749 7.35517 -0.383474 35.0076 -0.0 -0.0 -0.0 0.0 -0.0 36.8314 22.6725 -16.4299 -19.1437 -0.304845 -2.90829 -17.0573 7.53835 -2.6675 -5.57794 0.0 0.0 0.0 0.0 0.0 
2788.19493498 688.695 -1541.91825033 -4.6552380896 59.9918006553 3.97943079565 2.39208 -0.0410155 0.00568558 2.39208 -0.0412942 0.00306413 2.39208 -0.0412173 -0.00396652 2.39208 -0.0413265 0.00259277 -15.4179 19.2852 1.08603 -16.859 36.3001 8.22953 -0.0 0.0 -0.0 -1.93992 11.6894 -1.89015 0.716252 -11.9079 61.7313 2.95585 -55.6579 1.5606 29.1626 0.0914754 -3.68424 0.293812 -9.07018 -1.86859 -0.0 0.0 -0.0 9.39595 27.8975 -17.3065 -30.4733 26.191 -60.3129 0.330495 9.29804 -0.0268757 20.2502 -0.263593 2.55991 3.6732 -29.9858 -33.378 0.0 0.0 0.0 -11.1828 28.1218 14.3394 -1.1201 0.0444977 0.166133 3.02006 5.8837 -0.438972 33.6794 -0.0 -0.0 -0.0 0.0 -0.0 38.469 21.8968 -17.1136 -17.9807 -0.314207 -2.7301 -18.4294 4.34402 -2.84237 -6.65439 0.0 0.0 0.0 0.0 0.0 
2763.03614879 684.163 -1548.50265407 -5.54593852289 58.8831618224 4.36408314551 2.52453 0.138139 0.210673 2.52454 0.124454 0.219036 2.52502 0.0861519 0.236735 2.52496 0.122458 0.220158 -15.4609 19.732 1.32877 -16.9783 37.0214 8.67298 -0.0 0.0 -0.0 -2.08896 12.2947 -2.04103 1.22795 -10.799 61.651 3.26175 -58.2336 1.81706 26.7792 0.15462 -3.38635 0.849415 -10.1095 1.43822 -0.0 0.0 -0.0 8.93748 28.0 -16.2782 -31.586 26.0567 -62.1703 0.325683 9.16497 -0.0261037 20.1339 -0.264678 2.54509 4.6289 -31.2579 -40.1529 0.0 0.0 0.0 -16.072 27.4111 17.6467 6.05634 -0.296338 -0.881421 1.2662 6.02577 -0.18488 32.7452 -0.0 -0.0 -0.0 0.0 -0.0 39.3483 21.3257 -17.2259 -11.6169 -0.301337 -1.75429 -19.5691 2.07682 -2.99437 -7.35007 0.0 0.0 0.0 0.0 0.0 
2749.59017537 679.685 -1553.8447142 -6.91901654885 59.2054923093 5.40751094444 2.73592 0.156291 0.299307 2.73596 0.136929 0.308645 2.73669 0.0847053 0.326858 2.73657 0.135263 0.309379 -13.8696 19.9463 1.34908 -15.1152 37.2569 8.13705 -0.0 0.0 -0.0 -1.98658 11.0726 -2.07061 1.70609 -10.4013 60.4908 3.22636 -57.9534 1.78702 25.9508 0.173654 -3.28224 1.35348 -9.74162 5.00419 -0.0 0.0 -0.0 9.07471 28.1426 -16.5657 -32.0296 24.4228 -63.5041 0.331135 9.31573 -0.0269792 20.148 -0.264548 2.54689 4.58372 -30.4135 -39.8024 0.0 0.0 0.0 -17.1359 27.3107 18.4021 7.31078 -0.369298 -1.05987 1.44084 3.89944 -0.210747 30.3997 -0.0 -0.0 -0.0 0.0 -0.0 40.0622 20.9593 -17.3551 -7.83379 -0.242391 -1.17688 -19.0594 5.11135 -2.94974 -6.53854 0.0 0.0 0.0 0.0 0.0 
2710.71386845 667.399 -1552.89711071 -8.32904448413 59.7512397424 6.33885477923 2.85313 0.170733 0.573789 2.85331 0.133876 0.58349 2.85463 0.0380548 0.59744 2.85416 0.13193 0.583933 -12.615 19.1474 -0.313615 -13.5935 36.6092 5.78693 -0.0 0.0 -0.0 -1.92907 9.38392 -2.24682 0.536026 -9.29068 59.6514 3.69929 -61.3628 2.19535 24.9881 0.193882 -3.16093 1.98426 -10.4451 8.98639 -0.0 0.0 -0.0 8.96418 27.9034 -16.3483 -32.5553 25.7375 -64.9779 0.261788 7.38918 -0.0169043 15.5675 -0.283477 1.96231 5.40006 -32.0623 -46.1603 0.0 0.0 0.0 -20.218 27.346 20.7119 8.20113 -0.423452 -1.18555 3.7612 3.27809 -0.547166 31.5873 -0.0 -0.0 -0.0 0.0 -0.0 41.3001 20.7867 -17.9668 -2.54005 -0.0962182 -0.377908 -19.6249 6.63708 -3.059 -6.24662 0.0 0.0 0.0 0.0 0.0 
2693.29765116 663.377 -1554.86112719 -9.65771961759 61.0368525916 7.58674810312 2.84059 0.0953158 0.642292 2.84082 0.0542528 0.647055 2.84138 -0.0509296 0.647325 2.8408 0.0519403 0.647245 -11.8257 19.1203 -0.907416 -12.6761 36.8515 4.91295 -0.0 0.0 -0.0 -1.81727 9.05729 -2.10357 0.589141 -9.26032 59.311 3.82595 -62.1656 2.30694 24.3289 0.206555 -3.07768 2.37803 -10.3982 11.7061 -0.0 0.0 -0.0 8.67647 27.432 -15.7648 -32.8351 25.5544 -65.8363 0.26399 7.45062 -0.0171886 14.7018 -0.281801 1.85175 5.78395 -32.3768 -49.4499 0.0 0.0 0.0 -21.0692 27.4672 21.0202 7.90038 -0.404941 -1.14319 5.57236 1.31373 -0.809163 31.296 -0.0 -0.0 -0.0 0.0 -0.0 42.0741 20.9383 -17.8523 -1.10278 -0.0438346 -0.163557 -21.7411 8.86841 -3.42944 -5.72947 0.0 0.0 0.0 0.0 0.0 
2691.95794442 663.377 -1560.68024013 -9.45412096203 60.3581032348 7.35328035861 2.84059 0.0953158 0.642292 2.84082 0.0542528 0.647055 2.84138 -0.0509296 0.647325 2.8408 0.0519403 0.647245 -11.8257 19.1203 -0.907416 -12.6761 36.8515 4.91295 -0.0 0.0 -0.0 -1.81727 9.05729 -2.10357 0.589141 -9.26032 59.311 3.82595 -62.1656 2.30694 24.3289 0.206555 -3.07768 2.37803 -10.3982 11.7061 -0.0 0.0 -0.0 8.67647 27.432 -15.7648 -32.8351 25.5544 -65.8363 0.26399 7.45062 -0.0171886 14.7018 -0.281801 1.85175 5.78395 -32.3768 -49.4499 0.0 0.0 0.0 -21.0692 27.4672 21.0202 7.90038 -0.404941 -1.14319 5.57236 1.31373 -0.809163 31.296 -0.0 -0.0 -0.0 0.0 -0.0 42.0741 20.9383 -17.8523 -1.10278 -0.0438346 -0.163557 -21.7411 8.86841 -3.42944 -5.72947 0.0 0.0 0.0 0.0 0.0 
